<svg id="Layer_1" data-name="Layer 1" xmlns="http://www.w3.org/2000/svg" viewBox="0 0 407.73 50.4"><defs><style>.cls-1{fill:#231f20;}</style></defs><title>logo</title><path class="cls-1" d="M1.44,36a25.81,25.81,0,0,1,2-10.41A23.79,23.79,0,0,1,17,12.6a27.07,27.07,0,0,1,9.79-1.76,30.43,30.43,0,0,1,7.31.79,35,35,0,0,1,5.51,1.8A26.06,26.06,0,0,1,44.21,16L36.65,29.27a25.57,25.57,0,0,0-2.52-1.66,25.15,25.15,0,0,0-2.92-1.11A12.65,12.65,0,0,0,27.36,26a10.34,10.34,0,0,0-4.1.79A10.63,10.63,0,0,0,20,28.91,9.84,9.84,0,0,0,17,36,9.44,9.44,0,0,0,17.82,40a10.08,10.08,0,0,0,2.27,3.2,10.51,10.51,0,0,0,3.38,2.16,11.13,11.13,0,0,0,4.25.8,13.53,13.53,0,0,0,4.1-.58,15,15,0,0,0,3-1.3,10.86,10.86,0,0,0,2.52-1.87l7.56,13.32a21.42,21.42,0,0,1-4.61,2.81,38.75,38.75,0,0,1-5.54,1.87,28.73,28.73,0,0,1-7.42.87A28.65,28.65,0,0,1,17,59.4a24.4,24.4,0,0,1-8.21-5.15,23.54,23.54,0,0,1-5.4-8A26.45,26.45,0,0,1,1.44,36Z" transform="translate(-1.44 -10.84)"/><path class="cls-1" d="M46.73,12h16V47.41H76V60H46.73Z" transform="translate(-1.44 -10.84)"/><path class="cls-1" d="M77.4,36a24.59,24.59,0,0,1,2-9.8A25.2,25.2,0,0,1,92.81,12.82a25.19,25.19,0,0,1,19.58,0,25.2,25.2,0,0,1,13.43,13.42,25.22,25.22,0,0,1,0,19.59,25.18,25.18,0,0,1-13.43,13.43,25.19,25.19,0,0,1-19.58,0A25.18,25.18,0,0,1,79.38,45.83,24.54,24.54,0,0,1,77.4,36Zm15.12,0A9.74,9.74,0,0,0,93.31,40a10.26,10.26,0,0,0,2.16,3.2,9.87,9.87,0,0,0,3.21,2.16,10,10,0,0,0,7.84,0,10,10,0,0,0,3.21-2.16,10.26,10.26,0,0,0,2.16-3.2,10.15,10.15,0,0,0,0-7.85,10.11,10.11,0,0,0-5.37-5.36,10.12,10.12,0,0,0-7.84,0,10.11,10.11,0,0,0-5.37,5.36A9.79,9.79,0,0,0,92.52,36Z" transform="translate(-1.44 -10.84)"/><path class="cls-1" d="M151.41,61.24a27.21,27.21,0,0,1-8.2-1.16,16.89,16.89,0,0,1-6.27-3.45,15.09,15.09,0,0,1-4-5.83,22.29,22.29,0,0,1-1.41-8.28V12h15.34V41.87a6.17,6.17,0,0,0,1,3.85,5.26,5.26,0,0,0,7,0,6.17,6.17,0,0,0,1-3.85V12h15.41V42.52A22.29,22.29,0,0,1,170,50.8a15,15,0,0,1-4,5.83,17.18,17.18,0,0,1-6.3,3.45A27.28,27.28,0,0,1,151.41,61.24Z" transform="translate(-1.44 -10.84)"/><path class="cls-1" d="M176.18,60V12H189.5a43.9,43.9,0,0,1,12.06,1.51A24.06,24.06,0,0,1,210.49,18,19.5,19.5,0,0,1,216,25.56,26.33,26.33,0,0,1,217.94,36,26.34,26.34,0,0,1,216,46.37a19.5,19.5,0,0,1-5.54,7.52,24.41,24.41,0,0,1-8.93,4.57A42.72,42.72,0,0,1,189.5,60Zm15.34-13.68q5.4,0,8.35-2.55c2-1.71,2.95-4.31,2.95-7.82s-1-6.09-2.95-7.77-4.75-2.52-8.35-2.52Z" transform="translate(-1.44 -10.84)"/><path class="cls-1" d="M259.27,30.28a19,19,0,0,1-1.73,8.46,15.15,15.15,0,0,1-4.71,5.65,20.43,20.43,0,0,1-7,3.17,35.16,35.16,0,0,1-8.6,1V60H221.9V12h15.34a34.67,34.67,0,0,1,8.6,1,20.23,20.23,0,0,1,7,3.16,15.1,15.1,0,0,1,4.71,5.66A18.9,18.9,0,0,1,259.27,30.28Zm-22,5.32h.65c2,0,3.46-.46,4.35-1.4a5.46,5.46,0,0,0,1.33-3.92,5.49,5.49,0,0,0-1.33-3.93,5.81,5.81,0,0,0-4.35-1.4h-.65Z" transform="translate(-1.44 -10.84)"/><path class="cls-1" d="M262.87,12h16V47.41H292.1V60H262.87Z" transform="translate(-1.44 -10.84)"/><path class="cls-1" d="M293.54,36a24.59,24.59,0,0,1,2-9.8A25.2,25.2,0,0,1,309,12.82a25.19,25.19,0,0,1,19.58,0A25.2,25.2,0,0,1,342,26.24a25.22,25.22,0,0,1,0,19.59,25.18,25.18,0,0,1-13.43,13.43,25.19,25.19,0,0,1-19.58,0,25.18,25.18,0,0,1-13.43-13.43A24.54,24.54,0,0,1,293.54,36Zm15.12,0a9.74,9.74,0,0,0,.79,3.92,10.26,10.26,0,0,0,2.16,3.2,9.87,9.87,0,0,0,3.21,2.16,10,10,0,0,0,7.85,0,9.93,9.93,0,0,0,3.2-2.16A10.26,10.26,0,0,0,328,40a10.15,10.15,0,0,0,0-7.85,10.13,10.13,0,0,0-5.36-5.36,10.15,10.15,0,0,0-7.85,0,10.11,10.11,0,0,0-5.37,5.36A9.79,9.79,0,0,0,308.66,36Z" transform="translate(-1.44 -10.84)"/><path class="cls-1" d="M343.94,12h16.27l5.55,16.77L371.3,12h10.51l5.55,16.77L392.9,12h16.27L393.33,60H381.38l-4.82-14.54L371.73,60h-12Z" transform="translate(-1.44 -10.84)"/></svg>